M48
; DRILL file {KiCad 9.0.0} date 2025-08-30T20:51:22+0100
; FORMAT={-:-/ absolute / inch / decimal}
; #@! TF.CreationDate,2025-08-30T20:51:22+01:00
; #@! TF.GenerationSoftware,Kicad,Pcbnew,9.0.0
; #@! TF.FileFunction,Plated,1,2,PTH
FMAT,2
INCH
; #@! TA.AperFunction,Plated,PTH,ViaDrill
T1C0.0118
; #@! TA.AperFunction,Plated,PTH,ComponentDrill
T2C0.0236
%
G90
G05
T1
X5.2458Y-2.8664
X5.3568Y-3.0015
X5.3602Y-2.7931
X5.3745Y-2.97
X5.4132Y-2.9864
X5.4134Y-2.6398
X5.4301Y-2.7441
X5.4331Y-2.6885
X5.5Y-2.6457
X5.5074Y-2.8391
X5.5531Y-2.7931
X5.6949Y-2.6732
X5.7205Y-2.622
X5.7303Y-2.6791
X5.7717Y-2.7618
T2
G00X5.2866Y-2.5866
M15
G01X5.2866Y-2.6102
M16
G05
G00X5.2866Y-2.7413
M15
G01X5.2866Y-2.7846
M16
G05
G00X5.6268Y-2.5866
M15
G01X5.6268Y-2.6102
M16
G05
G00X5.6268Y-2.7413
M15
G01X5.6268Y-2.7846
M16
G05
M30
