%TF.GenerationSoftware,KiCad,Pcbnew,9.0.0*%
%TF.CreationDate,2025-08-30T20:51:20+01:00*%
%TF.ProjectId,040 055,30343020-3035-4352-9e6b-696361645f70,rev?*%
%TF.SameCoordinates,Original*%
%TF.FileFunction,Copper,L1,Top*%
%TF.FilePolarity,Positive*%
%FSLAX46Y46*%
G04 Gerber Fmt 4.6, Leading zero omitted, Abs format (unit mm)*
G04 Created by KiCad (PCBNEW 9.0.0) date 2025-08-30 20:51:20*
%MOMM*%
%LPD*%
G01*
G04 APERTURE LIST*
G04 Aperture macros list*
%AMRoundRect*
0 Rectangle with rounded corners*
0 $1 Rounding radius*
0 $2 $3 $4 $5 $6 $7 $8 $9 X,Y pos of 4 corners*
0 Add a 4 corners polygon primitive as box body*
4,1,4,$2,$3,$4,$5,$6,$7,$8,$9,$2,$3,0*
0 Add four circle primitives for the rounded corners*
1,1,$1+$1,$2,$3*
1,1,$1+$1,$4,$5*
1,1,$1+$1,$6,$7*
1,1,$1+$1,$8,$9*
0 Add four rect primitives between the rounded corners*
20,1,$1+$1,$2,$3,$4,$5,0*
20,1,$1+$1,$4,$5,$6,$7,0*
20,1,$1+$1,$6,$7,$8,$9,0*
20,1,$1+$1,$8,$9,$2,$3,0*%
%AMRotRect*
0 Rectangle, with rotation*
0 The origin of the aperture is its center*
0 $1 length*
0 $2 width*
0 $3 Rotation angle, in degrees counterclockwise*
0 Add horizontal line*
21,1,$1,$2,0,0,$3*%
G04 Aperture macros list end*
%TA.AperFunction,SMDPad,CuDef*%
%ADD10RoundRect,0.237500X0.250000X0.237500X-0.250000X0.237500X-0.250000X-0.237500X0.250000X-0.237500X0*%
%TD*%
%TA.AperFunction,SMDPad,CuDef*%
%ADD11R,0.600000X0.850000*%
%TD*%
%TA.AperFunction,SMDPad,CuDef*%
%ADD12RotRect,0.355600X0.762000X289.000000*%
%TD*%
%TA.AperFunction,SMDPad,CuDef*%
%ADD13RotRect,0.355600X1.041400X289.000000*%
%TD*%
%TA.AperFunction,SMDPad,CuDef*%
%ADD14RotRect,0.355600X0.762000X71.000000*%
%TD*%
%TA.AperFunction,SMDPad,CuDef*%
%ADD15RotRect,0.355600X1.041400X71.000000*%
%TD*%
%TA.AperFunction,ComponentPad*%
%ADD16O,1.000000X1.600000*%
%TD*%
%TA.AperFunction,ComponentPad*%
%ADD17O,1.000000X2.100000*%
%TD*%
%TA.AperFunction,ViaPad*%
%ADD18C,0.600000*%
%TD*%
%TA.AperFunction,Conductor*%
%ADD19C,0.250000*%
%TD*%
G04 APERTURE END LIST*
D10*
%TO.P,R2,1*%
%TO.N,GND*%
X141425000Y-66100000D03*
%TO.P,R2,2*%
%TO.N,Net-(J1-PadB5)*%
X139600000Y-66100000D03*
%TD*%
D11*
%TO.P,D1,1*%
%TO.N,Net-(D1-Pad1)*%
X137200000Y-84500000D03*
%TO.P,D1,2*%
%TO.N,Net-(D1-Pad2)*%
X138100000Y-84500000D03*
%TO.P,D1,3*%
%TO.N,Net-(D1-Pad3)*%
X139000000Y-84500000D03*
%TO.P,D1,4*%
%TO.N,Net-(D1-Pad4)*%
X139900000Y-84500000D03*
%TD*%
D12*
%TO.P,J2,1*%
%TO.N,GND*%
X130276180Y-66910365D03*
%TO.P,J2,2*%
X130438964Y-67383123D03*
%TO.P,J2,3*%
%TO.N,Net-(J2-Pad3)*%
X130601749Y-67855884D03*
%TO.P,J2,4*%
%TO.N,Net-(J2-Pad4)*%
X130764531Y-68328643D03*
%TO.P,J2,5*%
%TO.N,GND*%
X130927316Y-68801401D03*
%TO.P,J2,6*%
X131090101Y-69274161D03*
%TO.P,J2,7*%
%TO.N,Net-(D1-Pad2)*%
X131252885Y-69746920D03*
%TO.P,J2,8*%
%TO.N,Net-(D1-Pad4)*%
X131415669Y-70219681D03*
%TO.P,J2,9*%
%TO.N,Net-(D1-Pad3)*%
X131578453Y-70692439D03*
%TO.P,J2,10*%
%TO.N,Net-(D1-Pad1)*%
X131741238Y-71165197D03*
%TO.P,J2,11*%
%TO.N,/vcc*%
X131904021Y-71637959D03*
%TO.P,J2,12*%
X132066805Y-72110717D03*
D13*
%TO.P,J2,13*%
%TO.N,GND*%
X127513357Y-67026160D03*
%TO.P,J2,14*%
X129818380Y-73720433D03*
%TD*%
D14*
%TO.P,J3,1*%
%TO.N,GND*%
X144983195Y-72110717D03*
%TO.P,J3,2*%
X145145979Y-71637959D03*
%TO.P,J3,3*%
%TO.N,Net-(J3-Pad3)*%
X145308762Y-71165197D03*
%TO.P,J3,4*%
%TO.N,Net-(J3-Pad4)*%
X145471547Y-70692439D03*
%TO.P,J3,5*%
%TO.N,GND*%
X145634331Y-70219681D03*
%TO.P,J3,6*%
X145797115Y-69746920D03*
%TO.P,J3,7*%
%TO.N,Net-(D1-Pad2)*%
X145959899Y-69274161D03*
%TO.P,J3,8*%
%TO.N,Net-(D1-Pad4)*%
X146122684Y-68801401D03*
%TO.P,J3,9*%
%TO.N,Net-(D1-Pad3)*%
X146285469Y-68328643D03*
%TO.P,J3,10*%
%TO.N,Net-(D1-Pad1)*%
X146448251Y-67855884D03*
%TO.P,J3,11*%
%TO.N,/vcc*%
X146611036Y-67383123D03*
%TO.P,J3,12*%
X146773820Y-66910365D03*
D15*
%TO.P,J3,13*%
%TO.N,GND*%
X147231620Y-73720433D03*
%TO.P,J3,14*%
X149536643Y-67026160D03*
%TD*%
D10*
%TO.P,R1,1*%
%TO.N,Net-(J1-PadA5)*%
X137575000Y-66100000D03*
%TO.P,R1,2*%
%TO.N,GND*%
X135750000Y-66100000D03*
%TD*%
D16*
%TO.P,J1,S1*%
%TO.N,GND*%
X134280000Y-66000000D03*
D17*
X134280000Y-70180000D03*
D16*
X142920000Y-66000000D03*
D17*
X142920000Y-70180000D03*
%TD*%
D18*
%TO.N,/vcc*%
X141050000Y-70945000D03*
X145300000Y-66600000D03*
X133243162Y-72806838D03*
X136150000Y-70945000D03*
%TO.N,Net-(J1-PadA5)*%
X137500000Y-67050000D03*
%TO.N,/d-*%
X137925000Y-69700000D03*
%TO.N,/d+*%
X138000000Y-68287700D03*
X139887422Y-72114407D03*
%TO.N,Net-(J1-PadB5)*%
X139700000Y-67200000D03*
%TO.N,Net-(D1-Pad1)*%
X144650000Y-67900000D03*
X136512550Y-75437450D03*
%TO.N,Net-(D1-Pad2)*%
X146600001Y-70150000D03*
X136062138Y-76237862D03*
%TO.N,Net-(D1-Pad3)*%
X145550000Y-68050000D03*
X137495399Y-75854601D03*
%TD*%
D19*
%TO.N,/vcc*%
X145300000Y-66600000D02*
X145700000Y-66600000D01*
X146611036Y-67383123D02*
X145827913Y-66600000D01*
X141050000Y-70945000D02*
X136150000Y-70945000D01*
X132848015Y-72351985D02*
X132606747Y-72110717D01*
X132133989Y-71637959D02*
X132848015Y-72351985D01*
X132606747Y-72110717D02*
X132066805Y-72110717D01*
X131904021Y-71637959D02*
X132133989Y-71637959D01*
X146463455Y-66600000D02*
X146773820Y-66910365D01*
X145300000Y-66600000D02*
X145300000Y-66600000D01*
X145700000Y-66600000D02*
X146463455Y-66600000D01*
X132848015Y-72351985D02*
X132848015Y-72411691D01*
X145827913Y-66600000D02*
X145700000Y-66600000D01*
X132848015Y-72411691D02*
X133243162Y-72806838D01*
%TO.N,Net-(J1-PadA5)*%
X137500000Y-67050000D02*
X137500000Y-66175000D01*
X137500000Y-66175000D02*
X137575000Y-66100000D01*
%TO.N,/d-*%
X139600000Y-68400000D02*
X141500000Y-68400000D01*
X138300000Y-69700000D02*
X139600000Y-68400000D01*
X137825000Y-69700000D02*
X138300000Y-69700000D01*
%TO.N,/d+*%
X134050000Y-67600000D02*
X137312300Y-67600000D01*
X137312300Y-67600000D02*
X138000000Y-68287700D01*
%TO.N,Net-(J1-PadB5)*%
X139700000Y-67200000D02*
X139700000Y-66200000D01*
X139700000Y-66200000D02*
X139600000Y-66100000D01*
X139700000Y-67200000D02*
X139700000Y-67200000D01*
%TO.N,Net-(D1-Pad1)*%
X132320292Y-71070794D02*
X136699990Y-75450492D01*
X136699990Y-75450492D02*
X136525592Y-75450492D01*
X145075001Y-67474999D02*
X144650000Y-67900000D01*
X145926789Y-67550000D02*
X145851788Y-67474999D01*
X145926789Y-67550000D02*
X146138267Y-67761478D01*
X136525592Y-75450492D02*
X136512550Y-75437450D01*
X136699990Y-75450492D02*
X136699990Y-83999990D01*
X145851788Y-67474999D02*
X145075001Y-67474999D01*
X132051222Y-71070794D02*
X132320292Y-71070794D01*
X136699990Y-83999990D02*
X137200000Y-84500000D01*
%TO.N,Net-(D1-Pad2)*%
X136062138Y-76237862D02*
X136299980Y-76475703D01*
X135937549Y-76113273D02*
X136062138Y-76237862D01*
X136299980Y-84819982D02*
X136679999Y-85200001D01*
X146600001Y-69698682D02*
X146269885Y-69368566D01*
X136679999Y-85200001D02*
X137720001Y-85200001D01*
X134065639Y-73381839D02*
X135937549Y-75253749D01*
X135937549Y-75253749D02*
X135937549Y-76113273D01*
X136299980Y-76475703D02*
X136224990Y-76475703D01*
X130722530Y-71749878D02*
X132354491Y-73381839D01*
X132354491Y-73381839D02*
X134065639Y-73381839D01*
X138100000Y-84820002D02*
X138100000Y-84500000D01*
X146600001Y-70150000D02*
X146600001Y-69698682D01*
X136299980Y-76475703D02*
X136299980Y-84819982D01*
X130942900Y-69841326D02*
X130722530Y-70061696D01*
X130722530Y-70061696D02*
X130722530Y-71749878D01*
X137720001Y-85200001D02*
X138100000Y-84820002D01*
%TO.N,Net-(D1-Pad3)*%
X137100000Y-75211727D02*
X132388273Y-70500000D01*
X139000000Y-82030259D02*
X139000000Y-84500000D01*
X137100000Y-80130259D02*
X139000000Y-82030259D01*
X145650000Y-68150000D02*
X145891243Y-68150000D01*
X137100000Y-80130259D02*
X137100000Y-75800000D01*
X137100000Y-75661584D02*
X137100000Y-75900000D01*
X137100000Y-75211727D02*
X137100000Y-75661584D01*
X145891243Y-68150000D02*
X145975479Y-68234236D01*
X137100000Y-75800000D02*
X137100000Y-75211727D01*
X131986474Y-70500000D02*
X131888442Y-70598032D01*
X132388273Y-70500000D02*
X131986474Y-70500000D01*
X145550000Y-68050000D02*
X145650000Y-68150000D01*
X137440798Y-75800000D02*
X137495399Y-75854601D01*
X137100000Y-75800000D02*
X137440798Y-75800000D01*
%TO.N,Net-(D1-Pad4)*%
X138776986Y-76323014D02*
X139774868Y-76323014D01*
X140000000Y-84500000D02*
X140100927Y-84399073D01*
X140100927Y-84299073D02*
X139900000Y-84500000D01*
X139774868Y-76323014D02*
X140100927Y-76649073D01*
X144072118Y-72677882D02*
X145399466Y-72677882D01*
X147175001Y-70902347D02*
X147175001Y-69321999D01*
X140100927Y-77646956D02*
X140100927Y-84299073D01*
X131750929Y-70100000D02*
X131725655Y-70125274D01*
X132553971Y-70100000D02*
X138776986Y-76323014D01*
X145399466Y-72677882D02*
X147175001Y-70902347D01*
X132553971Y-70100000D02*
X131750929Y-70100000D01*
X146701739Y-68895808D02*
X146432670Y-68895808D01*
X147175001Y-69321999D02*
X146725275Y-68872272D01*
X140100927Y-76649073D02*
X144072118Y-72677882D01*
X140100927Y-77646956D02*
X140100927Y-76649073D01*
X146725275Y-68872272D02*
X146701739Y-68895808D01*
%TO.N,Net-(J2-Pad4)*%
X131074521Y-68234236D02*
X131715764Y-68234236D01*
X131715764Y-68234236D02*
X131900000Y-68050000D01*
X131900000Y-68050000D02*
X136300000Y-68050000D01*
X136300000Y-68050000D02*
X137900000Y-69650000D01*
%TO.N,Net-(J2-Pad3)*%
X131073211Y-67600000D02*
X130911733Y-67761478D01*
X132225000Y-67600000D02*
X131073211Y-67600000D01*
X132225000Y-67600000D02*
X134050000Y-67600000D01*
%TO.N,Net-(J3-Pad3)*%
X144294990Y-71505010D02*
X143700000Y-72100000D01*
X144729708Y-71070794D02*
X144295492Y-71505010D01*
X144295492Y-71505010D02*
X144294990Y-71505010D01*
X144998778Y-71070794D02*
X144729708Y-71070794D01*
X143700000Y-72100000D02*
X139900000Y-72100000D01*
%TO.N,Net-(J3-Pad4)*%
X142963526Y-68400000D02*
X143418516Y-68854990D01*
X141425000Y-68400000D02*
X142963526Y-68400000D01*
X143418516Y-68854990D02*
X145161558Y-70598032D01*
%TD*%
%TA.AperFunction,Conductor*%
%TO.N,GND*%
G36*
X137227964Y-65220185D02*
G01*
X137273719Y-65272989D01*
X137283663Y-65342147D01*
X137254638Y-65405703D01*
X137201880Y-65441541D01*
X137118024Y-65470883D01*
X137118023Y-65470884D01*
X137011789Y-65549288D01*
X137011788Y-65549289D01*
X136933384Y-65655523D01*
X136889774Y-65780150D01*
X136887000Y-65809739D01*
X136887000Y-66390260D01*
X136889774Y-66419849D01*
X136933384Y-66544476D01*
X136938358Y-66551215D01*
X137011789Y-66650711D01*
X137020829Y-66657382D01*
X137063080Y-66713027D01*
X137068540Y-66782683D01*
X137059991Y-66808664D01*
X137014835Y-66907541D01*
X137014834Y-66907542D01*
X136994353Y-67050000D01*
X137006265Y-67132854D01*
X136996321Y-67202012D01*
X136950566Y-67254816D01*
X136883527Y-67274500D01*
X131030358Y-67274500D01*
X130947573Y-67296682D01*
X130947570Y-67296683D01*
X130876049Y-67337976D01*
X130876048Y-67337977D01*
X130873346Y-67339536D01*
X130858919Y-67353963D01*
X130811611Y-67383524D01*
X130099674Y-67628664D01*
X130048160Y-67658706D01*
X129999883Y-67722193D01*
X129999883Y-67722194D01*
X129979574Y-67799332D01*
X129979574Y-67799335D01*
X129987614Y-67858418D01*
X130116243Y-68231984D01*
X130116245Y-68231987D01*
X130130759Y-68256876D01*
X130146510Y-68302620D01*
X130150395Y-68331165D01*
X130150398Y-68331180D01*
X130265163Y-68664483D01*
X130279027Y-68704746D01*
X130309067Y-68756256D01*
X130309068Y-68756257D01*
X130372555Y-68804534D01*
X130372557Y-68804534D01*
X130372559Y-68804536D01*
X130449695Y-68824844D01*
X130508779Y-68816803D01*
X131235737Y-68566491D01*
X131276106Y-68559736D01*
X131758615Y-68559736D01*
X131758617Y-68559736D01*
X131841403Y-68537554D01*
X131915626Y-68494701D01*
X131998508Y-68411819D01*
X132059831Y-68378334D01*
X132086189Y-68375500D01*
X136113811Y-68375500D01*
X136180850Y-68395185D01*
X136201492Y-68411819D01*
X137384302Y-69594628D01*
X137417787Y-69655951D01*
X137419045Y-69691132D01*
X137419353Y-69691132D01*
X137419353Y-69699752D01*
X137419360Y-69699948D01*
X137419353Y-69699996D01*
X137419353Y-69699999D01*
X137439834Y-69842456D01*
X137493728Y-69960465D01*
X137499623Y-69973373D01*
X137593872Y-70082143D01*
X137714947Y-70159953D01*
X137714950Y-70159954D01*
X137714949Y-70159954D01*
X137853036Y-70200499D01*
X137853038Y-70200500D01*
X137853039Y-70200500D01*
X137996962Y-70200500D01*
X137996962Y-70200499D01*
X138135053Y-70159953D01*
X138256128Y-70082143D01*
X138269524Y-70066682D01*
X138328300Y-70028909D01*
X138336949Y-70027081D01*
X138342850Y-70025500D01*
X138342853Y-70025500D01*
X138425639Y-70003318D01*
X138499862Y-69960465D01*
X138886092Y-69574234D01*
X140914500Y-69574234D01*
X140914500Y-69725766D01*
X140924102Y-69761602D01*
X140953719Y-69872136D01*
X140956312Y-69876627D01*
X141029485Y-70003365D01*
X141136635Y-70110515D01*
X141267865Y-70186281D01*
X141414234Y-70225500D01*
X141414236Y-70225500D01*
X141565764Y-70225500D01*
X141565766Y-70225500D01*
X141712135Y-70186281D01*
X141843365Y-70110515D01*
X141950515Y-70003365D01*
X142026281Y-69872135D01*
X142065500Y-69725766D01*
X142065500Y-69574234D01*
X142026281Y-69427865D01*
X141950515Y-69296635D01*
X141843365Y-69189485D01*
X141726721Y-69122140D01*
X141712136Y-69113719D01*
X141638950Y-69094109D01*
X141565766Y-69074500D01*
X141414234Y-69074500D01*
X141267863Y-69113719D01*
X141136635Y-69189485D01*
X141136632Y-69189487D01*
X141029487Y-69296632D01*
X141029485Y-69296635D01*
X140953719Y-69427863D01*
X140914500Y-69574234D01*
X138886092Y-69574234D01*
X139698507Y-68761818D01*
X139759830Y-68728334D01*
X139786188Y-68725500D01*
X141382147Y-68725500D01*
X142777337Y-68725500D01*
X142844376Y-68745185D01*
X142865018Y-68761819D01*
X143158051Y-69054852D01*
X143993119Y-69889920D01*
X144662467Y-70559267D01*
X144695952Y-70620590D01*
X144690968Y-70690282D01*
X144649096Y-70746215D01*
X144606885Y-70766721D01*
X144605959Y-70766969D01*
X144604067Y-70767476D01*
X144529846Y-70810329D01*
X144529843Y-70810331D01*
X144103025Y-71237148D01*
X144098937Y-71240734D01*
X143601492Y-71738181D01*
X143540169Y-71771666D01*
X143513811Y-71774500D01*
X140311777Y-71774500D01*
X140244738Y-71754815D01*
X140225324Y-71737993D01*
X140225255Y-71738073D01*
X140218553Y-71732266D01*
X140179277Y-71707025D01*
X140097475Y-71654454D01*
X140097473Y-71654453D01*
X140097471Y-71654452D01*
X140097472Y-71654452D01*
X139959385Y-71613907D01*
X139959383Y-71613907D01*
X139815461Y-71613907D01*
X139815458Y-71613907D01*
X139677371Y-71654452D01*
X139556295Y-71732263D01*
X139462045Y-71841033D01*
X139413514Y-71947300D01*
X139367758Y-72000103D01*
X139300719Y-72019787D01*
X139241703Y-72004842D01*
X139164509Y-71963067D01*
X139164506Y-71963066D01*
X139164503Y-71963064D01*
X139164497Y-71963062D01*
X139164495Y-71963061D01*
X138944984Y-71887702D01*
X138773282Y-71859050D01*
X138716049Y-71849500D01*
X138483951Y-71849500D01*
X138438164Y-71857140D01*
X138255015Y-71887702D01*
X138035504Y-71963061D01*
X138035495Y-71963064D01*
X137831371Y-72073531D01*
X137831365Y-72073535D01*
X137648222Y-72216081D01*
X137648219Y-72216084D01*
X137491016Y-72386852D01*
X137364075Y-72581151D01*
X137270842Y-72793699D01*
X137213866Y-73018691D01*
X137213864Y-73018702D01*
X137194700Y-73249993D01*
X137194700Y-73250006D01*
X137213864Y-73481297D01*
X137213866Y-73481308D01*
X137270842Y-73706300D01*
X137364075Y-73918848D01*
X137491016Y-74113147D01*
X137491019Y-74113151D01*
X137491021Y-74113153D01*
X137648216Y-74283913D01*
X137648219Y-74283915D01*
X137648222Y-74283918D01*
X137831365Y-74426464D01*
X137831371Y-74426468D01*
X137831374Y-74426470D01*
X138035497Y-74536936D01*
X138140804Y-74573088D01*
X138255015Y-74612297D01*
X138255017Y-74612297D01*
X138255019Y-74612298D01*
X138483951Y-74650500D01*
X138483952Y-74650500D01*
X138716048Y-74650500D01*
X138716049Y-74650500D01*
X138944981Y-74612298D01*
X139164503Y-74536936D01*
X139368626Y-74426470D01*
X139551784Y-74283913D01*
X139708979Y-74113153D01*
X139835924Y-73918849D01*
X139929157Y-73706300D01*
X139986134Y-73481305D01*
X140005300Y-73250000D01*
X140005300Y-73249993D01*
X139986135Y-73018702D01*
X139986133Y-73018691D01*
X139929157Y-72793699D01*
X139919747Y-72772247D01*
X139910844Y-72702947D01*
X139940821Y-72639835D01*
X139998369Y-72603460D01*
X140097472Y-72574361D01*
X140097472Y-72574360D01*
X140097475Y-72574360D01*
X140218550Y-72496550D01*
X140243031Y-72468296D01*
X140301810Y-72430523D01*
X140336744Y-72425500D01*
X143564811Y-72425500D01*
X143631850Y-72445185D01*
X143677605Y-72497989D01*
X143687549Y-72567147D01*
X143658524Y-72630703D01*
X143652492Y-72637181D01*
X140188608Y-76101065D01*
X140127285Y-76134550D01*
X140057593Y-76129566D01*
X140013246Y-76101065D01*
X139974732Y-76062551D01*
X139974730Y-76062549D01*
X139937618Y-76041122D01*
X139900508Y-76019696D01*
X139859114Y-76008605D01*
X139817721Y-75997514D01*
X139817720Y-75997514D01*
X138963174Y-75997514D01*
X138896135Y-75977829D01*
X138875493Y-75961195D01*
X133859298Y-70945000D01*
X135644353Y-70945000D01*
X135664834Y-71087456D01*
X135724622Y-71218371D01*
X135724623Y-71218373D01*
X135818872Y-71327143D01*
X135939947Y-71404953D01*
X135939950Y-71404954D01*
X135939949Y-71404954D01*
X136078036Y-71445499D01*
X136078038Y-71445500D01*
X136078039Y-71445500D01*
X136221962Y-71445500D01*
X136221962Y-71445499D01*
X136360053Y-71404953D01*
X136481128Y-71327143D01*
X136493126Y-71313296D01*
X136551903Y-71275523D01*
X136586838Y-71270500D01*
X140613162Y-71270500D01*
X140680201Y-71290185D01*
X140706872Y-71313295D01*
X140718872Y-71327143D01*
X140839947Y-71404953D01*
X140839950Y-71404954D01*
X140839949Y-71404954D01*
X140978036Y-71445499D01*
X140978038Y-71445500D01*
X140978039Y-71445500D01*
X141121962Y-71445500D01*
X141121962Y-71445499D01*
X141260053Y-71404953D01*
X141381128Y-71327143D01*
X141475377Y-71218373D01*
X141535165Y-71087457D01*
X141555647Y-70945000D01*
X141535165Y-70802543D01*
X141475377Y-70671627D01*
X141381128Y-70562857D01*
X141260053Y-70485047D01*
X141260051Y-70485046D01*
X141260049Y-70485045D01*
X141260050Y-70485045D01*
X141121963Y-70444500D01*
X141121961Y-70444500D01*
X140978039Y-70444500D01*
X140978036Y-70444500D01*
X140839949Y-70485045D01*
X140718873Y-70562856D01*
X140718872Y-70562856D01*
X140718872Y-70562857D01*
X140706873Y-70576703D01*
X140648097Y-70614477D01*
X140613162Y-70619500D01*
X136586838Y-70619500D01*
X136519799Y-70599815D01*
X136493127Y-70576704D01*
X136481128Y-70562857D01*
X136360053Y-70485047D01*
X136360051Y-70485046D01*
X136360049Y-70485045D01*
X136360050Y-70485045D01*
X136221963Y-70444500D01*
X136221961Y-70444500D01*
X136078039Y-70444500D01*
X136078036Y-70444500D01*
X135939949Y-70485045D01*
X135818873Y-70562856D01*
X135818872Y-70562856D01*
X135818872Y-70562857D01*
X135806874Y-70576703D01*
X135724623Y-70671626D01*
X135724622Y-70671628D01*
X135664834Y-70802543D01*
X135644353Y-70945000D01*
X133859298Y-70945000D01*
X132753835Y-69839537D01*
X132753833Y-69839535D01*
X132716721Y-69818108D01*
X132679611Y-69796682D01*
X132638217Y-69785591D01*
X132596824Y-69774500D01*
X132596823Y-69774500D01*
X131965836Y-69774500D01*
X131898797Y-69754815D01*
X131853042Y-69702011D01*
X131848592Y-69690870D01*
X131808431Y-69574234D01*
X135134500Y-69574234D01*
X135134500Y-69725766D01*
X135144102Y-69761602D01*
X135173719Y-69872136D01*
X135176312Y-69876627D01*
X135249485Y-70003365D01*
X135356635Y-70110515D01*
X135487865Y-70186281D01*
X135634234Y-70225500D01*
X135634236Y-70225500D01*
X135785764Y-70225500D01*
X135785766Y-70225500D01*
X135932135Y-70186281D01*
X136063365Y-70110515D01*
X136170515Y-70003365D01*
X136246281Y-69872135D01*
X136285500Y-69725766D01*
X136285500Y-69574234D01*
X136246281Y-69427865D01*
X136170515Y-69296635D01*
X136063365Y-69189485D01*
X135946721Y-69122140D01*
X135932136Y-69113719D01*
X135858950Y-69094109D01*
X135785766Y-69074500D01*
X135634234Y-69074500D01*
X135487863Y-69113719D01*
X135356635Y-69189485D01*
X135356632Y-69189487D01*
X135249487Y-69296632D01*
X135249485Y-69296635D01*
X135173719Y-69427863D01*
X135134500Y-69574234D01*
X131808431Y-69574234D01*
X131768003Y-69456824D01*
X131738389Y-69370817D01*
X131708349Y-69319307D01*
X131708347Y-69319305D01*
X131644860Y-69271028D01*
X131644857Y-69271027D01*
X131567721Y-69250719D01*
X131567719Y-69250719D01*
X131508634Y-69258759D01*
X130750812Y-69519699D01*
X130750809Y-69519700D01*
X130750808Y-69519701D01*
X130716468Y-69539727D01*
X130699296Y-69549742D01*
X130651019Y-69613229D01*
X130651019Y-69613230D01*
X130651018Y-69613232D01*
X130651018Y-69613233D01*
X130639772Y-69655951D01*
X130638236Y-69661784D01*
X130606004Y-69717894D01*
X130462064Y-69861834D01*
X130419212Y-69936055D01*
X130412673Y-69960462D01*
X130408643Y-69975501D01*
X130408643Y-69975502D01*
X130408642Y-69975501D01*
X130397030Y-70018839D01*
X130397030Y-71792730D01*
X130419212Y-71875518D01*
X130426247Y-71887702D01*
X130462065Y-71949740D01*
X132094025Y-73581700D01*
X132094026Y-73581701D01*
X132154629Y-73642304D01*
X132154631Y-73642305D01*
X132154635Y-73642308D01*
X132228846Y-73685153D01*
X132228853Y-73685157D01*
X132311638Y-73707339D01*
X133879450Y-73707339D01*
X133946489Y-73727024D01*
X133967131Y-73743658D01*
X135575730Y-75352256D01*
X135609215Y-75413579D01*
X135612049Y-75439937D01*
X135612049Y-75991625D01*
X135600843Y-76043136D01*
X135576973Y-76095403D01*
X135576972Y-76095404D01*
X135556491Y-76237862D01*
X135576972Y-76380318D01*
X135622086Y-76479101D01*
X135636761Y-76511235D01*
X135731010Y-76620005D01*
X135852085Y-76697815D01*
X135885414Y-76707601D01*
X135944192Y-76745374D01*
X135973218Y-76808929D01*
X135974480Y-76826578D01*
X135974480Y-84862834D01*
X135996662Y-84945622D01*
X136018088Y-84982732D01*
X136039515Y-85019844D01*
X136039517Y-85019846D01*
X136357490Y-85337819D01*
X136390975Y-85399142D01*
X136385991Y-85468834D01*
X136344119Y-85524767D01*
X136278655Y-85549184D01*
X136269809Y-85549500D01*
X135206092Y-85549500D01*
X135193938Y-85548903D01*
X135056180Y-85535335D01*
X135032340Y-85530593D01*
X134905728Y-85492186D01*
X134883271Y-85482883D01*
X134766593Y-85420517D01*
X134746381Y-85407012D01*
X134644108Y-85323079D01*
X134626920Y-85305891D01*
X134542986Y-85203616D01*
X134529482Y-85183406D01*
X134467114Y-85066725D01*
X134457815Y-85044277D01*
X134419404Y-84917652D01*
X134414665Y-84893824D01*
X134401097Y-84756060D01*
X134400500Y-84743907D01*
X134400500Y-75043608D01*
X134400499Y-75043600D01*
X134375403Y-74933649D01*
X134326467Y-74832033D01*
X134326466Y-74832030D01*
X134285538Y-74780710D01*
X134256146Y-74743854D01*
X134226753Y-74720413D01*
X134167969Y-74673533D01*
X134167966Y-74673532D01*
X134066350Y-74624596D01*
X133956399Y-74599500D01*
X133956393Y-74599500D01*
X133900000Y-74599500D01*
X133860118Y-74599500D01*
X133845684Y-74599500D01*
X133845676Y-74599501D01*
X129380700Y-74599501D01*
X129313661Y-74579816D01*
X129267906Y-74527012D01*
X129263582Y-74516238D01*
X126957382Y-67885909D01*
X126950500Y-67845172D01*
X126950500Y-66006092D01*
X126951097Y-65993939D01*
X126959805Y-65905519D01*
X126964665Y-65856173D01*
X126969403Y-65832349D01*
X127007816Y-65705719D01*
X127017113Y-65683278D01*
X127079485Y-65566587D01*
X127092982Y-65546387D01*
X127176924Y-65444103D01*
X127194103Y-65426924D01*
X127296387Y-65342982D01*
X127316587Y-65329485D01*
X127433278Y-65267113D01*
X127455719Y-65257816D01*
X127582349Y-65219403D01*
X127606173Y-65214665D01*
X127735170Y-65201960D01*
X127743939Y-65201097D01*
X127756092Y-65200500D01*
X127789882Y-65200500D01*
X137160925Y-65200500D01*
X137227964Y-65220185D01*
G37*
%TD.AperFunction*%
%TA.AperFunction,Conductor*%
G36*
X139252964Y-65220185D02*
G01*
X139298719Y-65272989D01*
X139308663Y-65342147D01*
X139279638Y-65405703D01*
X139226880Y-65441541D01*
X139143024Y-65470883D01*
X139143023Y-65470884D01*
X139036789Y-65549288D01*
X139036788Y-65549289D01*
X138958384Y-65655523D01*
X138914774Y-65780150D01*
X138912000Y-65809739D01*
X138912000Y-66390260D01*
X138914774Y-66419849D01*
X138958384Y-66544476D01*
X139036788Y-66650710D01*
X139036789Y-66650711D01*
X139143023Y-66729115D01*
X139143022Y-66729115D01*
X139205953Y-66751136D01*
X139262728Y-66791858D01*
X139288475Y-66856811D01*
X139277791Y-66919689D01*
X139214834Y-67057543D01*
X139194353Y-67200000D01*
X139214834Y-67342456D01*
X139274622Y-67473371D01*
X139274623Y-67473373D01*
X139368872Y-67582143D01*
X139489947Y-67659953D01*
X139489950Y-67659954D01*
X139489949Y-67659954D01*
X139628036Y-67700499D01*
X139628038Y-67700500D01*
X139628039Y-67700500D01*
X139771962Y-67700500D01*
X139771962Y-67700499D01*
X139910053Y-67659953D01*
X140031128Y-67582143D01*
X140125377Y-67473373D01*
X140185165Y-67342457D01*
X140205647Y-67200000D01*
X140185165Y-67057543D01*
X140125377Y-66926627D01*
X140125375Y-66926625D01*
X140125374Y-66926622D01*
X140082123Y-66876708D01*
X140053098Y-66813153D01*
X140063042Y-66743994D01*
X140102199Y-66695738D01*
X140163211Y-66650711D01*
X140241616Y-66544475D01*
X140285225Y-66419849D01*
X140288000Y-66390256D01*
X140288000Y-65809744D01*
X140285225Y-65780151D01*
X140241616Y-65655525D01*
X140163211Y-65549289D01*
X140159271Y-65546381D01*
X140056976Y-65470884D01*
X140056975Y-65470883D01*
X139973120Y-65441541D01*
X139916344Y-65400819D01*
X139890597Y-65335866D01*
X139904054Y-65267305D01*
X139952441Y-65216902D01*
X140014075Y-65200500D01*
X149310118Y-65200500D01*
X149343908Y-65200500D01*
X149356061Y-65201097D01*
X149366051Y-65202080D01*
X149493824Y-65214665D01*
X149517652Y-65219404D01*
X149644277Y-65257815D01*
X149666725Y-65267114D01*
X149783406Y-65329482D01*
X149803616Y-65342986D01*
X149874087Y-65400819D01*
X149905891Y-65426920D01*
X149923079Y-65444108D01*
X150007012Y-65546381D01*
X150020517Y-65566593D01*
X150082883Y-65683271D01*
X150092186Y-65705728D01*
X150123737Y-65809739D01*
X150130593Y-65832338D01*
X150135335Y-65856180D01*
X150148903Y-65993938D01*
X150149500Y-66006092D01*
X150149500Y-67845172D01*
X150142618Y-67885909D01*
X147836418Y-74516237D01*
X147795802Y-74573088D01*
X147730897Y-74598956D01*
X147719300Y-74599500D01*
X143143600Y-74599500D01*
X143033649Y-74624596D01*
X142932033Y-74673532D01*
X142932030Y-74673533D01*
X142843854Y-74743854D01*
X142773533Y-74832030D01*
X142773532Y-74832033D01*
X142724596Y-74933649D01*
X142699500Y-75043600D01*
X142699500Y-84743907D01*
X142698903Y-84756061D01*
X142685335Y-84893819D01*
X142680593Y-84917661D01*
X142642186Y-85044271D01*
X142632883Y-85066728D01*
X142570517Y-85183406D01*
X142557012Y-85203618D01*
X142473079Y-85305891D01*
X142455891Y-85323079D01*
X142353618Y-85407012D01*
X142333406Y-85420517D01*
X142216728Y-85482883D01*
X142194271Y-85492186D01*
X142067661Y-85530593D01*
X142043819Y-85535335D01*
X141906062Y-85548903D01*
X141893908Y-85549500D01*
X138130191Y-85549500D01*
X138063152Y-85529815D01*
X138017397Y-85477011D01*
X138007453Y-85407853D01*
X138036478Y-85344297D01*
X138042510Y-85337819D01*
X138218509Y-85161819D01*
X138279832Y-85128334D01*
X138306190Y-85125500D01*
X138419750Y-85125500D01*
X138419751Y-85125499D01*
X138434568Y-85122552D01*
X138478229Y-85113868D01*
X138478231Y-85113867D01*
X138481108Y-85111945D01*
X138488335Y-85109681D01*
X138489513Y-85109194D01*
X138489556Y-85109299D01*
X138547785Y-85091066D01*
X138615165Y-85109550D01*
X138618892Y-85111945D01*
X138621768Y-85113867D01*
X138621770Y-85113868D01*
X138680247Y-85125499D01*
X138680250Y-85125500D01*
X138680252Y-85125500D01*
X139319750Y-85125500D01*
X139319751Y-85125499D01*
X139334568Y-85122552D01*
X139378229Y-85113868D01*
X139378231Y-85113867D01*
X139381108Y-85111945D01*
X139388335Y-85109681D01*
X139389513Y-85109194D01*
X139389556Y-85109299D01*
X139447785Y-85091066D01*
X139515165Y-85109550D01*
X139518892Y-85111945D01*
X139521768Y-85113867D01*
X139521770Y-85113868D01*
X139580247Y-85125499D01*
X139580250Y-85125500D01*
X139580252Y-85125500D01*
X140219750Y-85125500D01*
X140219751Y-85125499D01*
X140234568Y-85122552D01*
X140278229Y-85113868D01*
X140278229Y-85113867D01*
X140278231Y-85113867D01*
X140344552Y-85069552D01*
X140388867Y-85003231D01*
X140388867Y-85003229D01*
X140388868Y-85003229D01*
X140400499Y-84944752D01*
X140400500Y-84944750D01*
X140400500Y-84555010D01*
X140404725Y-84522916D01*
X140421630Y-84459827D01*
X140426427Y-84441926D01*
X140426427Y-84356220D01*
X140426427Y-84350063D01*
X140426428Y-84350048D01*
X140426428Y-84248625D01*
X140426427Y-84248607D01*
X140426427Y-76835262D01*
X140446112Y-76768223D01*
X140462746Y-76747581D01*
X144170626Y-73039701D01*
X144231949Y-73006216D01*
X144258307Y-73003382D01*
X145442317Y-73003382D01*
X145442319Y-73003382D01*
X145525105Y-72981200D01*
X145599328Y-72938347D01*
X147364653Y-71173019D01*
X147364658Y-71173016D01*
X147374861Y-71162812D01*
X147374863Y-71162812D01*
X147435466Y-71102209D01*
X147476284Y-71031510D01*
X147478319Y-71027986D01*
X147500502Y-70945200D01*
X147500502Y-70859494D01*
X147500502Y-70851899D01*
X147500501Y-70851881D01*
X147500501Y-69279148D01*
X147500501Y-69279146D01*
X147487068Y-69229014D01*
X147478319Y-69196360D01*
X147435466Y-69122137D01*
X146925137Y-68611807D01*
X146920197Y-68608955D01*
X146911751Y-68604078D01*
X146863537Y-68553509D01*
X146850317Y-68484902D01*
X146856509Y-68456327D01*
X146899603Y-68331176D01*
X146903489Y-68302619D01*
X146919239Y-68256877D01*
X146933755Y-68231987D01*
X147030770Y-67950233D01*
X147062383Y-67858423D01*
X147062383Y-67858422D01*
X147062385Y-67858417D01*
X147066270Y-67829865D01*
X147082023Y-67784117D01*
X147096540Y-67759226D01*
X147179650Y-67517856D01*
X147225169Y-67385660D01*
X147228228Y-67363181D01*
X147229055Y-67357103D01*
X147244807Y-67311358D01*
X147259324Y-67286468D01*
X147364111Y-66982143D01*
X147387954Y-66912899D01*
X147393333Y-66873371D01*
X147395995Y-66853813D01*
X147375687Y-66776678D01*
X147375685Y-66776675D01*
X147375685Y-66776674D01*
X147327408Y-66713187D01*
X147327407Y-66713186D01*
X147275897Y-66683146D01*
X147275898Y-66683146D01*
X147275894Y-66683144D01*
X146892744Y-66551215D01*
X146845434Y-66521652D01*
X146663319Y-66339537D01*
X146663317Y-66339535D01*
X146626205Y-66318108D01*
X146589095Y-66296682D01*
X146547701Y-66285591D01*
X146506308Y-66274500D01*
X146506307Y-66274500D01*
X145736838Y-66274500D01*
X145669799Y-66254815D01*
X145643127Y-66231704D01*
X145631128Y-66217857D01*
X145510053Y-66140047D01*
X145510051Y-66140046D01*
X145510049Y-66140045D01*
X145510050Y-66140045D01*
X145371963Y-66099500D01*
X145371961Y-66099500D01*
X145228039Y-66099500D01*
X145228036Y-66099500D01*
X145089949Y-66140045D01*
X144968873Y-66217856D01*
X144874623Y-66326626D01*
X144874622Y-66326628D01*
X144814834Y-66457543D01*
X144794353Y-66600000D01*
X144814834Y-66742456D01*
X144874622Y-66873371D01*
X144874625Y-66873377D01*
X144973488Y-66987471D01*
X145002513Y-67051026D01*
X144992569Y-67120185D01*
X144946814Y-67172989D01*
X144941777Y-67176059D01*
X144875142Y-67214532D01*
X144875136Y-67214536D01*
X144726492Y-67363181D01*
X144665169Y-67396666D01*
X144638811Y-67399500D01*
X144578036Y-67399500D01*
X144439949Y-67440045D01*
X144318873Y-67517856D01*
X144224623Y-67626626D01*
X144224622Y-67626628D01*
X144164834Y-67757543D01*
X144144353Y-67900000D01*
X144164834Y-68042456D01*
X144209170Y-68139536D01*
X144224623Y-68173373D01*
X144318872Y-68282143D01*
X144439947Y-68359953D01*
X144439950Y-68359954D01*
X144439949Y-68359954D01*
X144578036Y-68400499D01*
X144578038Y-68400500D01*
X144578039Y-68400500D01*
X144721962Y-68400500D01*
X144721962Y-68400499D01*
X144860050Y-68359954D01*
X144860051Y-68359954D01*
X144860053Y-68359953D01*
X144959960Y-68295746D01*
X145026999Y-68276062D01*
X145094038Y-68295746D01*
X145120712Y-68318859D01*
X145124622Y-68323372D01*
X145124623Y-68323373D01*
X145218872Y-68432143D01*
X145339947Y-68509953D01*
X145339950Y-68509954D01*
X145339949Y-68509954D01*
X145458833Y-68544861D01*
X145517611Y-68582635D01*
X145546637Y-68646190D01*
X145541144Y-68704207D01*
X145508549Y-68798871D01*
X145504663Y-68827421D01*
X145488914Y-68873159D01*
X145474395Y-68898056D01*
X145474394Y-68898059D01*
X145345764Y-69271626D01*
X145337724Y-69330709D01*
X145337724Y-69330712D01*
X145358033Y-69407850D01*
X145358033Y-69407851D01*
X145406310Y-69471338D01*
X145406312Y-69471340D01*
X145457822Y-69501380D01*
X146096128Y-69721165D01*
X146153107Y-69761602D01*
X146179178Y-69826426D01*
X146168552Y-69889920D01*
X146114836Y-70007541D01*
X146114835Y-70007542D01*
X146094354Y-70150000D01*
X146114835Y-70292457D01*
X146117334Y-70300964D01*
X146116072Y-70301334D01*
X146124721Y-70361489D01*
X146095695Y-70425044D01*
X146036916Y-70462818D01*
X145967046Y-70462817D01*
X145961613Y-70461084D01*
X145261677Y-70220077D01*
X145214366Y-70190514D01*
X143618378Y-68594525D01*
X143163390Y-68139537D01*
X143163388Y-68139535D01*
X143126276Y-68118108D01*
X143089166Y-68096682D01*
X143047772Y-68085591D01*
X143006379Y-68074500D01*
X143006378Y-68074500D01*
X139650465Y-68074500D01*
X139650449Y-68074499D01*
X139642853Y-68074499D01*
X139557147Y-68074499D01*
X139524033Y-68083372D01*
X139474359Y-68096682D01*
X139474358Y-68096683D01*
X139400141Y-68139532D01*
X139400136Y-68139536D01*
X139339533Y-68200140D01*
X138305897Y-69233775D01*
X138244574Y-69267260D01*
X138174882Y-69262276D01*
X138151182Y-69250412D01*
X138135053Y-69240047D01*
X138135052Y-69240046D01*
X138135048Y-69240044D01*
X137996963Y-69199500D01*
X137996961Y-69199500D01*
X137961188Y-69199500D01*
X137894149Y-69179815D01*
X137873507Y-69163181D01*
X137663518Y-68953191D01*
X137630033Y-68891868D01*
X137635017Y-68822176D01*
X137676889Y-68766243D01*
X137742353Y-68741826D01*
X137786134Y-68746533D01*
X137789945Y-68747652D01*
X137789947Y-68747653D01*
X137869251Y-68770938D01*
X137928038Y-68788200D01*
X137928039Y-68788200D01*
X138071962Y-68788200D01*
X138071962Y-68788199D01*
X138210053Y-68747653D01*
X138331128Y-68669843D01*
X138425377Y-68561073D01*
X138485165Y-68430157D01*
X138505647Y-68287700D01*
X138485165Y-68145243D01*
X138425377Y-68014327D01*
X138331128Y-67905557D01*
X138210053Y-67827747D01*
X138210051Y-67827746D01*
X138210049Y-67827745D01*
X138210050Y-67827745D01*
X138071963Y-67787200D01*
X138071961Y-67787200D01*
X138011188Y-67787200D01*
X137944149Y-67767515D01*
X137923507Y-67750881D01*
X137831331Y-67658705D01*
X137802132Y-67629505D01*
X137768648Y-67568184D01*
X137773632Y-67498492D01*
X137815504Y-67442559D01*
X137822748Y-67437527D01*
X137831128Y-67432143D01*
X137925377Y-67323373D01*
X137985165Y-67192457D01*
X138005647Y-67050000D01*
X137985165Y-66907543D01*
X137977240Y-66890191D01*
X137967298Y-66821035D01*
X137996323Y-66757479D01*
X138024711Y-66734921D01*
X138024499Y-66734634D01*
X138077205Y-66695735D01*
X138138211Y-66650711D01*
X138216616Y-66544475D01*
X138260225Y-66419849D01*
X138263000Y-66390256D01*
X138263000Y-65809744D01*
X138260225Y-65780151D01*
X138216616Y-65655525D01*
X138138211Y-65549289D01*
X138134271Y-65546381D01*
X138031976Y-65470884D01*
X138031975Y-65470883D01*
X137948120Y-65441541D01*
X137891344Y-65400819D01*
X137865597Y-65335866D01*
X137879054Y-65267305D01*
X137927441Y-65216902D01*
X137989075Y-65200500D01*
X139185925Y-65200500D01*
X139252964Y-65220185D01*
G37*
%TD.AperFunction*%
%TA.AperFunction,Conductor*%
G36*
X144925864Y-71433452D02*
G01*
X145564513Y-71653357D01*
X145578101Y-71655206D01*
X145623598Y-71661398D01*
X145630624Y-71659548D01*
X145700464Y-71661512D01*
X145758157Y-71700924D01*
X145785384Y-71765271D01*
X145773499Y-71834123D01*
X145749879Y-71867141D01*
X145300958Y-72316063D01*
X145239635Y-72349548D01*
X145213277Y-72352382D01*
X144207307Y-72352382D01*
X144140268Y-72332697D01*
X144094513Y-72279893D01*
X144084569Y-72210735D01*
X144113594Y-72147179D01*
X144119626Y-72140701D01*
X144393185Y-71867141D01*
X144487444Y-71772881D01*
X144491511Y-71769316D01*
X144495349Y-71765477D01*
X144495354Y-71765475D01*
X144797815Y-71463012D01*
X144859135Y-71429530D01*
X144925864Y-71433452D01*
G37*
%TD.AperFunction*%
%TD*%
M02*
