%TF.GenerationSoftware,KiCad,Pcbnew,9.0.0*%
%TF.CreationDate,2025-08-30T20:51:20+01:00*%
%TF.ProjectId,040 055,30343020-3035-4352-9e6b-696361645f70,rev?*%
%TF.SameCoordinates,Original*%
%TF.FileFunction,Profile,NP*%
%FSLAX46Y46*%
G04 Gerber Fmt 4.6, Leading zero omitted, Abs format (unit mm)*
G04 Created by KiCad (PCBNEW 9.0.0) date 2025-08-30 20:51:20*
%MOMM*%
%LPD*%
G01*
G04 APERTURE LIST*
%TA.AperFunction,Profile*%
%ADD10C,0.050000*%
%TD*%
G04 APERTURE END LIST*
D10*
X147950001Y-74800000D02*
X143200000Y-74800000D01*
X147950001Y-74800000D02*
X150350000Y-67900000D01*
X139800000Y-73250000D02*
G75*
G02*
X137400000Y-73250000I-1200000J0D01*
G01*
X137400000Y-73250000D02*
G75*
G02*
X139800000Y-73250000I1200000J0D01*
G01*
X149350000Y-65000000D02*
G75*
G02*
X150350000Y-66000000I0J-1000000D01*
G01*
X133900000Y-74800001D02*
X129149999Y-74800001D01*
X126750000Y-66000000D02*
G75*
G02*
X127750000Y-65000000I1000000J0D01*
G01*
X135200000Y-85750000D02*
X141900000Y-85750000D01*
X149350000Y-65000000D02*
X127750000Y-65000000D01*
X150350000Y-66000000D02*
X150350000Y-67900000D01*
X142900000Y-84750000D02*
G75*
G02*
X141900000Y-85750000I-1000000J0D01*
G01*
X142900000Y-84750000D02*
X142900000Y-75100000D01*
X135200000Y-85750000D02*
G75*
G02*
X134200000Y-84750000I0J1000000D01*
G01*
X129149999Y-74800001D02*
X126750000Y-67900000D01*
X139800000Y-79500000D02*
G75*
G02*
X137400000Y-79500000I-1200000J0D01*
G01*
X137400000Y-79500000D02*
G75*
G02*
X139800000Y-79500000I1200000J0D01*
G01*
X142900000Y-75100000D02*
G75*
G02*
X143200000Y-74800000I300000J0D01*
G01*
X133900000Y-74800000D02*
G75*
G02*
X134200000Y-75100000I0J-300000D01*
G01*
X134200000Y-75100000D02*
X134200000Y-84750000D01*
X126750000Y-66000000D02*
X126750000Y-67900000D01*
M02*
