%TF.GenerationSoftware,KiCad,Pcbnew,9.0.0*%
%TF.CreationDate,2025-08-30T20:52:42+01:00*%
%TF.ProjectId,030,3033302e-6b69-4636-9164-5f7063625858,rev?*%
%TF.SameCoordinates,Original*%
%TF.FileFunction,Copper,L1,Top*%
%TF.FilePolarity,Positive*%
%FSLAX46Y46*%
G04 Gerber Fmt 4.6, Leading zero omitted, Abs format (unit mm)*
G04 Created by KiCad (PCBNEW 9.0.0) date 2025-08-30 20:52:42*
%MOMM*%
%LPD*%
G01*
G04 APERTURE LIST*
G04 Aperture macros list*
%AMRoundRect*
0 Rectangle with rounded corners*
0 $1 Rounding radius*
0 $2 $3 $4 $5 $6 $7 $8 $9 X,Y pos of 4 corners*
0 Add a 4 corners polygon primitive as box body*
4,1,4,$2,$3,$4,$5,$6,$7,$8,$9,$2,$3,0*
0 Add four circle primitives for the rounded corners*
1,1,$1+$1,$2,$3*
1,1,$1+$1,$4,$5*
1,1,$1+$1,$6,$7*
1,1,$1+$1,$8,$9*
0 Add four rect primitives between the rounded corners*
20,1,$1+$1,$2,$3,$4,$5,0*
20,1,$1+$1,$4,$5,$6,$7,0*
20,1,$1+$1,$6,$7,$8,$9,0*
20,1,$1+$1,$8,$9,$2,$3,0*%
G04 Aperture macros list end*
%TA.AperFunction,SMDPad,CuDef*%
%ADD10RoundRect,0.237500X-0.250000X-0.237500X0.250000X-0.237500X0.250000X0.237500X-0.250000X0.237500X0*%
%TD*%
%TA.AperFunction,SMDPad,CuDef*%
%ADD11R,0.762000X0.355600*%
%TD*%
%TA.AperFunction,SMDPad,CuDef*%
%ADD12R,1.041400X0.355600*%
%TD*%
%TA.AperFunction,SMDPad,CuDef*%
%ADD13R,1.060000X1.580000*%
%TD*%
%TA.AperFunction,SMDPad,CuDef*%
%ADD14R,0.600000X2.180000*%
%TD*%
%TA.AperFunction,ComponentPad*%
%ADD15O,1.000000X1.600000*%
%TD*%
%TA.AperFunction,ComponentPad*%
%ADD16O,1.000000X2.100000*%
%TD*%
%TA.AperFunction,ViaPad*%
%ADD17C,0.400000*%
%TD*%
%TA.AperFunction,Conductor*%
%ADD18C,0.200000*%
%TD*%
G04 APERTURE END LIST*
D10*
%TO.P,R1,1*%
%TO.N,Net-(J2-PadB5)*%
X107166500Y-53721000D03*
%TO.P,R1,2*%
%TO.N,GND*%
X108991500Y-53721000D03*
%TD*%
D11*
%TO.P,J1,1*%
%TO.N,GND*%
X99570000Y-54388001D03*
%TO.P,J1,2*%
%TO.N,/D+*%
X99570000Y-54888000D03*
%TO.P,J1,3*%
%TO.N,/D-*%
X99570000Y-55388002D03*
%TO.P,J1,4*%
%TO.N,GND*%
X99570000Y-55888001D03*
%TO.P,J1,5*%
%TO.N,+5V*%
X99570000Y-56388000D03*
%TO.P,J1,6*%
X99570000Y-56888001D03*
%TO.P,J1,7*%
%TO.N,GND*%
X99570000Y-57388001D03*
%TO.P,J1,8*%
%TO.N,/Annode*%
X99570000Y-57888002D03*
%TO.P,J1,9*%
%TO.N,/G*%
X99570000Y-58388001D03*
%TO.P,J1,10*%
%TO.N,/R*%
X99570000Y-58888000D03*
%TO.P,J1,11*%
%TO.N,/B*%
X99570000Y-59388002D03*
%TO.P,J1,12*%
%TO.N,GND*%
X99570000Y-59888001D03*
D12*
%TO.P,J1,13*%
%TO.N,N/C*%
X96920000Y-53598000D03*
%TO.P,J1,14*%
X96920000Y-60678002D03*
%TD*%
D10*
%TO.P,R2,1*%
%TO.N,GND*%
X103610500Y-53721000D03*
%TO.P,R2,2*%
%TO.N,Net-(J2-PadA5)*%
X105435500Y-53721000D03*
%TD*%
D13*
%TO.P,D1,1*%
%TO.N,/Annode*%
X109112000Y-72240000D03*
D14*
%TO.P,D1,2*%
X107962000Y-71940000D03*
%TO.P,D1,3*%
%TO.N,/G*%
X107062000Y-71940000D03*
%TO.P,D1,4*%
%TO.N,/R*%
X106162000Y-71940000D03*
%TO.P,D1,5*%
%TO.N,/B*%
X105262000Y-71940000D03*
%TO.P,D1,6*%
%TO.N,/Annode*%
X104362000Y-71940000D03*
D13*
%TO.P,D1,7*%
X103212000Y-72240000D03*
%TD*%
D15*
%TO.P,USB,S1*%
%TO.N,GND*%
X101981000Y-53814000D03*
D16*
X101981000Y-57994000D03*
D15*
X110621000Y-53814000D03*
D16*
X110621000Y-57994000D03*
%TD*%
D17*
%TO.N,+5V*%
X100459000Y-56642000D03*
X104390000Y-55160000D03*
X106490000Y-55170000D03*
%TO.N,/D+*%
X106784810Y-56285190D03*
%TO.N,/D-*%
X106325190Y-56744810D03*
%TO.N,Net-(J2-PadB5)*%
X107710000Y-57500000D03*
%TO.N,Net-(J2-PadA5)*%
X105412000Y-54483000D03*
%TO.N,/Annode*%
X109112000Y-72240000D03*
X103212000Y-72240000D03*
X100840000Y-58102500D03*
%TD*%
D18*
%TO.N,+5V*%
X104390000Y-55160000D02*
X106480000Y-55160000D01*
X106480000Y-55160000D02*
X106490000Y-55170000D01*
X99570000Y-56388000D02*
X99570000Y-56642000D01*
X99570000Y-56642000D02*
X99570000Y-56888001D01*
X99570000Y-56642000D02*
X100459000Y-56642000D01*
%TO.N,/G*%
X100211687Y-58388001D02*
X103761000Y-61937314D01*
X103761000Y-67533000D02*
X107074000Y-70846000D01*
X99570000Y-58388001D02*
X100211687Y-58388001D01*
X103761000Y-61937314D02*
X103761000Y-67533000D01*
X107074000Y-70846000D02*
X107074000Y-72136000D01*
%TO.N,/R*%
X103316500Y-62023158D02*
X103316500Y-67988500D01*
X106174000Y-70846000D02*
X106174000Y-72136000D01*
X103316500Y-67988500D02*
X106174000Y-70846000D01*
X100181342Y-58888000D02*
X103316500Y-62023158D01*
X99570000Y-58888000D02*
X100181342Y-58888000D01*
%TO.N,/B*%
X102872000Y-62109002D02*
X102872000Y-68444000D01*
X99570000Y-59388002D02*
X100151000Y-59388002D01*
X105274000Y-70846000D02*
X105274000Y-72136000D01*
X100151000Y-59388002D02*
X102872000Y-62109002D01*
X99570001Y-59388001D02*
X99570000Y-59388002D01*
X102872000Y-68444000D02*
X105274000Y-70846000D01*
%TO.N,GND*%
X99570000Y-54388001D02*
X99570000Y-54356000D01*
X99570000Y-57388001D02*
X100138001Y-57388001D01*
X98941999Y-55888001D02*
X98940000Y-55890000D01*
X100138001Y-57388001D02*
X100150000Y-57400000D01*
X99051999Y-57388001D02*
X99570000Y-57388001D01*
X99570000Y-55888001D02*
X98941999Y-55888001D01*
X99051999Y-57388001D02*
X99050000Y-57390000D01*
%TO.N,/D+*%
X100141501Y-54888000D02*
X100166502Y-54913001D01*
X99617201Y-54935201D02*
X99570000Y-54888000D01*
X106643389Y-56285190D02*
X106784810Y-56285190D01*
X100762701Y-54913001D02*
X101504700Y-55655000D01*
X101504700Y-55655000D02*
X106013199Y-55655000D01*
X99570000Y-54888000D02*
X100141501Y-54888000D01*
X106013199Y-55655000D02*
X106643389Y-56285190D01*
X100166502Y-54913001D02*
X100762701Y-54913001D01*
%TO.N,/D-*%
X100141501Y-55388002D02*
X100166502Y-55363001D01*
X100576301Y-55363001D02*
X101318300Y-56105000D01*
X99570000Y-55388002D02*
X100141501Y-55388002D01*
X100166502Y-55363001D02*
X100576301Y-55363001D01*
X106325190Y-56603389D02*
X106325190Y-56744810D01*
X105826801Y-56105000D02*
X106325190Y-56603389D01*
X101318300Y-56105000D02*
X105826801Y-56105000D01*
%TO.N,Net-(J2-PadB5)*%
X107190000Y-53744500D02*
X107190000Y-55420000D01*
X107710000Y-55940000D02*
X107710000Y-57500000D01*
X107166500Y-53721000D02*
X107190000Y-53744500D01*
X107190000Y-55420000D02*
X107710000Y-55940000D01*
%TO.N,Net-(J2-PadA5)*%
X105031000Y-53490500D02*
X105181500Y-53340000D01*
X105412000Y-54483000D02*
X105412000Y-53744500D01*
X105412000Y-53744500D02*
X105435500Y-53721000D01*
%TO.N,/Annode*%
X103212000Y-72240000D02*
X104062000Y-72240000D01*
X109112000Y-72240000D02*
X108262000Y-72240000D01*
X103212000Y-72240000D02*
X103212000Y-72240000D01*
X104062000Y-72240000D02*
X104362000Y-71940000D01*
X109112000Y-72240000D02*
X109112000Y-72240000D01*
X100625502Y-57888002D02*
X100840000Y-58102500D01*
X108262000Y-72240000D02*
X107962000Y-71940000D01*
X99570000Y-57888002D02*
X100625502Y-57888002D01*
%TD*%
%TA.AperFunction,Conductor*%
%TO.N,GND*%
G36*
X111806061Y-52601097D02*
G01*
X111816051Y-52602080D01*
X111943824Y-52614665D01*
X111967652Y-52619404D01*
X112094277Y-52657815D01*
X112116725Y-52667114D01*
X112233406Y-52729482D01*
X112253616Y-52742986D01*
X112355891Y-52826920D01*
X112373079Y-52844108D01*
X112457012Y-52946381D01*
X112470517Y-52966593D01*
X112532883Y-53083271D01*
X112542186Y-53105728D01*
X112580593Y-53232338D01*
X112585335Y-53256180D01*
X112598903Y-53393938D01*
X112599500Y-53406092D01*
X112599500Y-61223907D01*
X112598903Y-61236061D01*
X112585335Y-61373819D01*
X112580593Y-61397661D01*
X112542186Y-61524271D01*
X112532883Y-61546728D01*
X112470517Y-61663406D01*
X112457012Y-61683618D01*
X112373079Y-61785891D01*
X112355891Y-61803079D01*
X112253618Y-61887012D01*
X112233406Y-61900517D01*
X112116728Y-61962883D01*
X112094271Y-61972186D01*
X111967661Y-62010593D01*
X111943819Y-62015335D01*
X111806062Y-62028903D01*
X111793908Y-62029500D01*
X110452116Y-62029500D01*
X110378425Y-62060024D01*
X110322024Y-62116425D01*
X110291500Y-62190116D01*
X110291500Y-72643907D01*
X110290903Y-72656061D01*
X110277335Y-72793819D01*
X110272593Y-72817661D01*
X110234186Y-72944271D01*
X110224883Y-72966728D01*
X110162517Y-73083406D01*
X110149012Y-73103618D01*
X110111361Y-73149496D01*
X110053616Y-73188830D01*
X109983771Y-73190701D01*
X109924003Y-73154514D01*
X109893287Y-73091758D01*
X109892106Y-73058669D01*
X109892500Y-73054671D01*
X109892500Y-71425323D01*
X109892499Y-71425321D01*
X109877967Y-71352264D01*
X109877966Y-71352260D01*
X109822601Y-71269399D01*
X109739740Y-71214034D01*
X109739739Y-71214033D01*
X109739735Y-71214032D01*
X109666677Y-71199500D01*
X109666674Y-71199500D01*
X108636500Y-71199500D01*
X108569461Y-71179815D01*
X108523706Y-71127011D01*
X108512500Y-71075500D01*
X108512500Y-70825323D01*
X108512499Y-70825321D01*
X108497967Y-70752264D01*
X108497966Y-70752260D01*
X108442601Y-70669399D01*
X108359740Y-70614034D01*
X108359739Y-70614033D01*
X108359735Y-70614032D01*
X108286677Y-70599500D01*
X108286674Y-70599500D01*
X107637326Y-70599500D01*
X107637324Y-70599500D01*
X107564259Y-70614033D01*
X107559452Y-70616025D01*
X107489983Y-70623494D01*
X107464548Y-70616025D01*
X107459740Y-70614033D01*
X107386676Y-70599500D01*
X107386674Y-70599500D01*
X107374544Y-70599500D01*
X107307505Y-70579815D01*
X107286863Y-70563181D01*
X104147819Y-67424137D01*
X104114334Y-67362814D01*
X104111500Y-67336456D01*
X104111500Y-66899994D01*
X104794087Y-66899994D01*
X104794087Y-66900005D01*
X104813937Y-67139558D01*
X104872947Y-67372588D01*
X104969509Y-67592728D01*
X105001771Y-67642108D01*
X105100987Y-67793968D01*
X105263794Y-67970824D01*
X105453490Y-68118471D01*
X105664901Y-68232881D01*
X105664904Y-68232882D01*
X105892256Y-68310932D01*
X105892258Y-68310932D01*
X105892260Y-68310933D01*
X106129365Y-68350499D01*
X106129366Y-68350499D01*
X106369748Y-68350499D01*
X106369749Y-68350499D01*
X106606854Y-68310933D01*
X106834213Y-68232881D01*
X107045624Y-68118471D01*
X107235320Y-67970824D01*
X107398127Y-67793968D01*
X107529605Y-67592727D01*
X107626166Y-67372590D01*
X107685176Y-67139562D01*
X107705027Y-66900000D01*
X107685176Y-66660438D01*
X107626166Y-66427410D01*
X107529605Y-66207273D01*
X107398127Y-66006032D01*
X107235320Y-65829176D01*
X107235315Y-65829172D01*
X107235313Y-65829170D01*
X107045627Y-65681531D01*
X107045623Y-65681528D01*
X106834214Y-65567119D01*
X106834209Y-65567117D01*
X106606857Y-65489067D01*
X106429025Y-65459392D01*
X106369749Y-65449501D01*
X106129365Y-65449501D01*
X106081944Y-65457414D01*
X105892256Y-65489067D01*
X105664904Y-65567117D01*
X105664899Y-65567119D01*
X105453490Y-65681528D01*
X105453486Y-65681531D01*
X105263800Y-65829170D01*
X105263797Y-65829173D01*
X105100988Y-66006030D01*
X105100985Y-66006034D01*
X104969509Y-66207271D01*
X104872947Y-66427411D01*
X104813937Y-66660441D01*
X104794087Y-66899994D01*
X104111500Y-66899994D01*
X104111500Y-61891172D01*
X104111500Y-61891170D01*
X104087614Y-61802026D01*
X104062485Y-61758502D01*
X104041470Y-61722102D01*
X103969362Y-61649994D01*
X104796530Y-61649994D01*
X104796530Y-61650005D01*
X104816380Y-61889558D01*
X104875390Y-62122588D01*
X104971952Y-62342728D01*
X105029297Y-62430500D01*
X105103430Y-62543968D01*
X105266237Y-62720824D01*
X105455933Y-62868471D01*
X105667344Y-62982881D01*
X105667347Y-62982882D01*
X105894699Y-63060932D01*
X105894701Y-63060932D01*
X105894703Y-63060933D01*
X106131808Y-63100499D01*
X106131809Y-63100499D01*
X106372191Y-63100499D01*
X106372192Y-63100499D01*
X106609297Y-63060933D01*
X106836656Y-62982881D01*
X107048067Y-62868471D01*
X107237763Y-62720824D01*
X107400570Y-62543968D01*
X107532048Y-62342727D01*
X107628609Y-62122590D01*
X107687619Y-61889562D01*
X107701495Y-61722103D01*
X107707470Y-61650005D01*
X107707470Y-61649994D01*
X107687619Y-61410441D01*
X107687619Y-61410438D01*
X107628609Y-61177410D01*
X107532048Y-60957273D01*
X107529610Y-60953542D01*
X107400571Y-60756034D01*
X107400570Y-60756032D01*
X107237763Y-60579176D01*
X107237758Y-60579172D01*
X107237756Y-60579170D01*
X107048070Y-60431531D01*
X107048066Y-60431528D01*
X106836657Y-60317119D01*
X106836652Y-60317117D01*
X106609300Y-60239067D01*
X106431468Y-60209392D01*
X106372192Y-60199501D01*
X106131808Y-60199501D01*
X106084387Y-60207414D01*
X105894699Y-60239067D01*
X105667347Y-60317117D01*
X105667342Y-60317119D01*
X105455933Y-60431528D01*
X105455929Y-60431531D01*
X105266243Y-60579170D01*
X105266240Y-60579173D01*
X105103431Y-60756030D01*
X105103428Y-60756034D01*
X104971952Y-60957271D01*
X104875390Y-61177411D01*
X104816380Y-61410441D01*
X104796530Y-61649994D01*
X103969362Y-61649994D01*
X101020262Y-58700894D01*
X100986777Y-58639571D01*
X100991761Y-58569879D01*
X101033633Y-58513946D01*
X101040882Y-58508912D01*
X101138049Y-58446467D01*
X101222882Y-58348563D01*
X101276697Y-58230726D01*
X101295133Y-58102500D01*
X101276697Y-57974274D01*
X101222882Y-57856437D01*
X101138049Y-57758533D01*
X101029069Y-57688496D01*
X101029068Y-57688495D01*
X101029064Y-57688493D01*
X100907405Y-57652772D01*
X100854658Y-57621476D01*
X100840715Y-57607533D01*
X100840710Y-57607529D01*
X100760792Y-57561389D01*
X100760791Y-57561388D01*
X100760790Y-57561388D01*
X100671646Y-57537502D01*
X100671645Y-57537502D01*
X100181040Y-57537502D01*
X100114001Y-57517817D01*
X100112149Y-57516604D01*
X100073984Y-57491103D01*
X100029179Y-57437491D01*
X100022992Y-57388234D01*
X102835500Y-57388234D01*
X102835500Y-57539765D01*
X102874719Y-57686136D01*
X102876080Y-57688493D01*
X102950485Y-57817365D01*
X103057635Y-57924515D01*
X103188865Y-58000281D01*
X103335234Y-58039500D01*
X103335236Y-58039500D01*
X103486764Y-58039500D01*
X103486766Y-58039500D01*
X103633135Y-58000281D01*
X103764365Y-57924515D01*
X103871515Y-57817365D01*
X103947281Y-57686135D01*
X103986500Y-57539766D01*
X103986500Y-57388234D01*
X103947281Y-57241865D01*
X103871515Y-57110635D01*
X103764365Y-57003485D01*
X103698750Y-56965602D01*
X103633136Y-56927719D01*
X103559950Y-56908109D01*
X103486766Y-56888500D01*
X103335234Y-56888500D01*
X103188863Y-56927719D01*
X103057635Y-57003485D01*
X103057632Y-57003487D01*
X102950487Y-57110632D01*
X102950485Y-57110635D01*
X102874719Y-57241863D01*
X102835500Y-57388234D01*
X100022992Y-57388234D01*
X100020472Y-57368166D01*
X100050626Y-57305139D01*
X100073979Y-57284902D01*
X100131601Y-57246402D01*
X100186966Y-57163541D01*
X100186966Y-57163539D01*
X100191640Y-57152257D01*
X100194880Y-57153599D01*
X100217676Y-57110008D01*
X100278387Y-57075426D01*
X100341854Y-57077122D01*
X100394227Y-57092500D01*
X100394228Y-57092500D01*
X100523773Y-57092500D01*
X100523773Y-57092499D01*
X100648069Y-57056004D01*
X100757049Y-56985967D01*
X100841882Y-56888063D01*
X100895697Y-56770226D01*
X100914133Y-56642000D01*
X100895697Y-56513774D01*
X100895697Y-56513773D01*
X100893199Y-56505267D01*
X100896620Y-56504262D01*
X100889088Y-56451954D01*
X100918099Y-56388392D01*
X100976869Y-56350605D01*
X101046738Y-56350589D01*
X101099511Y-56381893D01*
X101103088Y-56385470D01*
X101163724Y-56420478D01*
X101183012Y-56431614D01*
X101272156Y-56455500D01*
X105630257Y-56455500D01*
X105697296Y-56475185D01*
X105717938Y-56491819D01*
X105838846Y-56612727D01*
X105872331Y-56674050D01*
X105873903Y-56718052D01*
X105870057Y-56744806D01*
X105870057Y-56744809D01*
X105888492Y-56873035D01*
X105895555Y-56888500D01*
X105942308Y-56990873D01*
X106027141Y-57088777D01*
X106136121Y-57158814D01*
X106175298Y-57170317D01*
X106260415Y-57195309D01*
X106260417Y-57195310D01*
X106260418Y-57195310D01*
X106389963Y-57195310D01*
X106389963Y-57195309D01*
X106514259Y-57158814D01*
X106623239Y-57088777D01*
X106708072Y-56990873D01*
X106761887Y-56873036D01*
X106767298Y-56835399D01*
X106796322Y-56771844D01*
X106855097Y-56734070D01*
X106973879Y-56699194D01*
X107082859Y-56629157D01*
X107141787Y-56561149D01*
X107200564Y-56523375D01*
X107270433Y-56523374D01*
X107329212Y-56561148D01*
X107358238Y-56624703D01*
X107359500Y-56642352D01*
X107359500Y-57170317D01*
X107339815Y-57237356D01*
X107329215Y-57251517D01*
X107327119Y-57253935D01*
X107327116Y-57253939D01*
X107273302Y-57371774D01*
X107254867Y-57500000D01*
X107273302Y-57628225D01*
X107327117Y-57746061D01*
X107327118Y-57746063D01*
X107411951Y-57843967D01*
X107520931Y-57914004D01*
X107645225Y-57950499D01*
X107645227Y-57950500D01*
X107645228Y-57950500D01*
X107774773Y-57950500D01*
X107774773Y-57950499D01*
X107899069Y-57914004D01*
X108008049Y-57843967D01*
X108092882Y-57746063D01*
X108146697Y-57628226D01*
X108165133Y-57500000D01*
X108149064Y-57388234D01*
X108615500Y-57388234D01*
X108615500Y-57539765D01*
X108654719Y-57686136D01*
X108656080Y-57688493D01*
X108730485Y-57817365D01*
X108837635Y-57924515D01*
X108968865Y-58000281D01*
X109115234Y-58039500D01*
X109115236Y-58039500D01*
X109266764Y-58039500D01*
X109266766Y-58039500D01*
X109413135Y-58000281D01*
X109544365Y-57924515D01*
X109651515Y-57817365D01*
X109727281Y-57686135D01*
X109766500Y-57539766D01*
X109766500Y-57388234D01*
X109727281Y-57241865D01*
X109651515Y-57110635D01*
X109544365Y-57003485D01*
X109478750Y-56965602D01*
X109413136Y-56927719D01*
X109339950Y-56908109D01*
X109266766Y-56888500D01*
X109115234Y-56888500D01*
X108968863Y-56927719D01*
X108837635Y-57003485D01*
X108837632Y-57003487D01*
X108730487Y-57110632D01*
X108730485Y-57110635D01*
X108654719Y-57241863D01*
X108615500Y-57388234D01*
X108149064Y-57388234D01*
X108146697Y-57371774D01*
X108116265Y-57305139D01*
X108092883Y-57253939D01*
X108092882Y-57253938D01*
X108092882Y-57253937D01*
X108090784Y-57251516D01*
X108089456Y-57248607D01*
X108088089Y-57246480D01*
X108088395Y-57246283D01*
X108061762Y-57187961D01*
X108060500Y-57170317D01*
X108060500Y-55893858D01*
X108060500Y-55893856D01*
X108036614Y-55804712D01*
X108033973Y-55800138D01*
X108028286Y-55790287D01*
X108028284Y-55790285D01*
X107990470Y-55724788D01*
X107576819Y-55311137D01*
X107543334Y-55249814D01*
X107540500Y-55223456D01*
X107540500Y-54519184D01*
X107560185Y-54452145D01*
X107612989Y-54406390D01*
X107621168Y-54403002D01*
X107652773Y-54391214D01*
X107652774Y-54391213D01*
X107652778Y-54391212D01*
X107765116Y-54307116D01*
X107849212Y-54194778D01*
X107898251Y-54063299D01*
X107902229Y-54026299D01*
X107904499Y-54005190D01*
X107904500Y-54005173D01*
X107904500Y-53436826D01*
X107904499Y-53436809D01*
X107898251Y-53378700D01*
X107871045Y-53305759D01*
X107849212Y-53247222D01*
X107843505Y-53239599D01*
X107802059Y-53184234D01*
X107765116Y-53134884D01*
X107696170Y-53083271D01*
X107652780Y-53050789D01*
X107652778Y-53050788D01*
X107626144Y-53040854D01*
X107521299Y-53001748D01*
X107463190Y-52995500D01*
X107463174Y-52995500D01*
X106869826Y-52995500D01*
X106869809Y-52995500D01*
X106811700Y-53001748D01*
X106680219Y-53050789D01*
X106567884Y-53134884D01*
X106483789Y-53247219D01*
X106434748Y-53378700D01*
X106428500Y-53436809D01*
X106428500Y-54005190D01*
X106434748Y-54063299D01*
X106451947Y-54109409D01*
X106483788Y-54194778D01*
X106567884Y-54307116D01*
X106680222Y-54391212D01*
X106758835Y-54420533D01*
X106814767Y-54462404D01*
X106839184Y-54527868D01*
X106839500Y-54536714D01*
X106839500Y-54637457D01*
X106819815Y-54704496D01*
X106767011Y-54750251D01*
X106697853Y-54760195D01*
X106680567Y-54756435D01*
X106554772Y-54719500D01*
X106425228Y-54719500D01*
X106425226Y-54719500D01*
X106300935Y-54755994D01*
X106300932Y-54755995D01*
X106300931Y-54755996D01*
X106248305Y-54789816D01*
X106181268Y-54809500D01*
X105951096Y-54809500D01*
X105884057Y-54789815D01*
X105838302Y-54737011D01*
X105828358Y-54667853D01*
X105838301Y-54633989D01*
X105848697Y-54611226D01*
X105867133Y-54483000D01*
X105867132Y-54482998D01*
X105868021Y-54476821D01*
X105897046Y-54413266D01*
X105916448Y-54395201D01*
X105921775Y-54391213D01*
X105921778Y-54391212D01*
X106034116Y-54307116D01*
X106118212Y-54194778D01*
X106167251Y-54063299D01*
X106171229Y-54026299D01*
X106173499Y-54005190D01*
X106173500Y-54005173D01*
X106173500Y-53436826D01*
X106173499Y-53436809D01*
X106167251Y-53378700D01*
X106140045Y-53305759D01*
X106118212Y-53247222D01*
X106112505Y-53239599D01*
X106071059Y-53184234D01*
X106034116Y-53134884D01*
X105965170Y-53083271D01*
X105921780Y-53050789D01*
X105921778Y-53050788D01*
X105895144Y-53040854D01*
X105790299Y-53001748D01*
X105732190Y-52995500D01*
X105732174Y-52995500D01*
X105266359Y-52995500D01*
X105234266Y-52991275D01*
X105227646Y-52989501D01*
X105227644Y-52989501D01*
X105135356Y-52989501D01*
X105135354Y-52989501D01*
X105135348Y-52989502D01*
X105104909Y-52997657D01*
X105086084Y-53001170D01*
X105080705Y-53001748D01*
X105080694Y-53001751D01*
X105063410Y-53008196D01*
X105052199Y-53011780D01*
X105046212Y-53013385D01*
X105040706Y-53015665D01*
X105030516Y-53020465D01*
X104949222Y-53050787D01*
X104949221Y-53050788D01*
X104836884Y-53134884D01*
X104752788Y-53247221D01*
X104752787Y-53247224D01*
X104730954Y-53305759D01*
X104722161Y-53324422D01*
X104704387Y-53355208D01*
X104704384Y-53355214D01*
X104680501Y-53444350D01*
X104680501Y-53536645D01*
X104693275Y-53584319D01*
X104697500Y-53616411D01*
X104697500Y-54005190D01*
X104703748Y-54063299D01*
X104720947Y-54109409D01*
X104752788Y-54194778D01*
X104836884Y-54307116D01*
X104909141Y-54361208D01*
X104951012Y-54417141D01*
X104957569Y-54478115D01*
X104956867Y-54482999D01*
X104975302Y-54611223D01*
X104975302Y-54611224D01*
X104975303Y-54611226D01*
X104985699Y-54633989D01*
X104995642Y-54703147D01*
X104966617Y-54766703D01*
X104907838Y-54804477D01*
X104872904Y-54809500D01*
X104714293Y-54809500D01*
X104647254Y-54789815D01*
X104579071Y-54745996D01*
X104579066Y-54745994D01*
X104454774Y-54709500D01*
X104454772Y-54709500D01*
X104325228Y-54709500D01*
X104325226Y-54709500D01*
X104200935Y-54745994D01*
X104200932Y-54745995D01*
X104200931Y-54745996D01*
X104149677Y-54778934D01*
X104091950Y-54816033D01*
X104007118Y-54913937D01*
X104007117Y-54913938D01*
X103953302Y-55031774D01*
X103934867Y-55160000D01*
X103934867Y-55160003D01*
X103935277Y-55162856D01*
X103934867Y-55165707D01*
X103934867Y-55168869D01*
X103934412Y-55168869D01*
X103925332Y-55232014D01*
X103879576Y-55284817D01*
X103812539Y-55304500D01*
X101701244Y-55304500D01*
X101634205Y-55284815D01*
X101613563Y-55268181D01*
X100977914Y-54632532D01*
X100977909Y-54632528D01*
X100897991Y-54586388D01*
X100897990Y-54586387D01*
X100897989Y-54586387D01*
X100808845Y-54562501D01*
X100808844Y-54562501D01*
X100297276Y-54562501D01*
X100265183Y-54558276D01*
X100233027Y-54549660D01*
X100187645Y-54537500D01*
X100187644Y-54537500D01*
X100181040Y-54537500D01*
X100114001Y-54517815D01*
X100112188Y-54516628D01*
X100073450Y-54490745D01*
X100048739Y-54474233D01*
X100048735Y-54474232D01*
X99975677Y-54459700D01*
X99975674Y-54459700D01*
X99164326Y-54459700D01*
X99164323Y-54459700D01*
X99091264Y-54474232D01*
X99091260Y-54474233D01*
X99008399Y-54529599D01*
X98953033Y-54612460D01*
X98953032Y-54612464D01*
X98938500Y-54685521D01*
X98938500Y-55090473D01*
X98943142Y-55113816D01*
X98943142Y-55162186D01*
X98938500Y-55185528D01*
X98938500Y-55590480D01*
X98953032Y-55663537D01*
X98953033Y-55663541D01*
X99008399Y-55746403D01*
X99066013Y-55784899D01*
X99110818Y-55838511D01*
X99119525Y-55907836D01*
X99089371Y-55970863D01*
X99066013Y-55991103D01*
X99008399Y-56029598D01*
X98953033Y-56112460D01*
X98953032Y-56112464D01*
X98938500Y-56185521D01*
X98938500Y-56590477D01*
X98943141Y-56613813D01*
X98943142Y-56662185D01*
X98938500Y-56685527D01*
X98938500Y-57090479D01*
X98953032Y-57163536D01*
X98953033Y-57163540D01*
X98969351Y-57187961D01*
X99008399Y-57246402D01*
X99066014Y-57284899D01*
X99110820Y-57338510D01*
X99119527Y-57407835D01*
X99089373Y-57470863D01*
X99066015Y-57491103D01*
X99026035Y-57517817D01*
X99008399Y-57529601D01*
X99001608Y-57539765D01*
X98953033Y-57612462D01*
X98953032Y-57612466D01*
X98938500Y-57685523D01*
X98938500Y-58090477D01*
X98943141Y-58113813D01*
X98943141Y-58162188D01*
X98938500Y-58185523D01*
X98938500Y-58590476D01*
X98943141Y-58613812D01*
X98943141Y-58662187D01*
X98938500Y-58685522D01*
X98938500Y-59090473D01*
X98943142Y-59113816D01*
X98943142Y-59162186D01*
X98938500Y-59185528D01*
X98938500Y-59590480D01*
X98953032Y-59663537D01*
X98953033Y-59663541D01*
X98953034Y-59663542D01*
X99008399Y-59746403D01*
X99079064Y-59793619D01*
X99091260Y-59801768D01*
X99091264Y-59801769D01*
X99164321Y-59816301D01*
X99164324Y-59816302D01*
X99164326Y-59816302D01*
X99975672Y-59816302D01*
X99975674Y-59816302D01*
X100000702Y-59811323D01*
X100070290Y-59817549D01*
X100112575Y-59845259D01*
X102485181Y-62217865D01*
X102518666Y-62279188D01*
X102521500Y-62305546D01*
X102521500Y-68490143D01*
X102545386Y-68579287D01*
X102545387Y-68579290D01*
X102591527Y-68659208D01*
X102591531Y-68659213D01*
X104320137Y-70387819D01*
X104353622Y-70449142D01*
X104348638Y-70518834D01*
X104306766Y-70574767D01*
X104241302Y-70599184D01*
X104232456Y-70599500D01*
X104037323Y-70599500D01*
X103964264Y-70614032D01*
X103964260Y-70614033D01*
X103881399Y-70669399D01*
X103826033Y-70752260D01*
X103826032Y-70752264D01*
X103811500Y-70825321D01*
X103811500Y-71075500D01*
X103791815Y-71142539D01*
X103739011Y-71188294D01*
X103687500Y-71199500D01*
X102657323Y-71199500D01*
X102584264Y-71214032D01*
X102584260Y-71214033D01*
X102501399Y-71269399D01*
X102446033Y-71352260D01*
X102446032Y-71352264D01*
X102431500Y-71425321D01*
X102431500Y-73040379D01*
X102411815Y-73107418D01*
X102359011Y-73153173D01*
X102289853Y-73163117D01*
X102226297Y-73134092D01*
X102211651Y-73119049D01*
X102198982Y-73103612D01*
X102185482Y-73083406D01*
X102172260Y-73058669D01*
X102123114Y-72966725D01*
X102113815Y-72944277D01*
X102075404Y-72817652D01*
X102070665Y-72793824D01*
X102057097Y-72656060D01*
X102056500Y-72643907D01*
X102056500Y-62190119D01*
X102056499Y-62190116D01*
X102028528Y-62122588D01*
X102025976Y-62116426D01*
X101969574Y-62060024D01*
X101895883Y-62029500D01*
X101895882Y-62029500D01*
X96906092Y-62029500D01*
X96893938Y-62028903D01*
X96756180Y-62015335D01*
X96732340Y-62010593D01*
X96605728Y-61972186D01*
X96583271Y-61962883D01*
X96466593Y-61900517D01*
X96446381Y-61887012D01*
X96344108Y-61803079D01*
X96326920Y-61785891D01*
X96274568Y-61722100D01*
X96242986Y-61683616D01*
X96229482Y-61663406D01*
X96222319Y-61650005D01*
X96167114Y-61546725D01*
X96157815Y-61524277D01*
X96119404Y-61397652D01*
X96114665Y-61373824D01*
X96101097Y-61236060D01*
X96100500Y-61223907D01*
X96100500Y-61189411D01*
X96120185Y-61122372D01*
X96172989Y-61076617D01*
X96242147Y-61066673D01*
X96293389Y-61086308D01*
X96301560Y-61091768D01*
X96301563Y-61091768D01*
X96301564Y-61091769D01*
X96374621Y-61106301D01*
X96374624Y-61106302D01*
X96374626Y-61106302D01*
X97465376Y-61106302D01*
X97465377Y-61106301D01*
X97538440Y-61091768D01*
X97621301Y-61036403D01*
X97676666Y-60953542D01*
X97691200Y-60880476D01*
X97691200Y-60475528D01*
X97691200Y-60475525D01*
X97691199Y-60475523D01*
X97676667Y-60402466D01*
X97676666Y-60402462D01*
X97621301Y-60319601D01*
X97546610Y-60269695D01*
X97538439Y-60264235D01*
X97538435Y-60264234D01*
X97465377Y-60249702D01*
X97465374Y-60249702D01*
X96374626Y-60249702D01*
X96374623Y-60249702D01*
X96301564Y-60264234D01*
X96301557Y-60264237D01*
X96293389Y-60269695D01*
X96226712Y-60290572D01*
X96159332Y-60272086D01*
X96112642Y-60220107D01*
X96100500Y-60166592D01*
X96100500Y-54109409D01*
X96120185Y-54042370D01*
X96172989Y-53996615D01*
X96242147Y-53986671D01*
X96293389Y-54006306D01*
X96301560Y-54011766D01*
X96301563Y-54011766D01*
X96301564Y-54011767D01*
X96374621Y-54026299D01*
X96374624Y-54026300D01*
X96374626Y-54026300D01*
X97465376Y-54026300D01*
X97465377Y-54026299D01*
X97538440Y-54011766D01*
X97621301Y-53956401D01*
X97676666Y-53873540D01*
X97691200Y-53800474D01*
X97691200Y-53395526D01*
X97691200Y-53395523D01*
X97691199Y-53395521D01*
X97676667Y-53322464D01*
X97676666Y-53322460D01*
X97665507Y-53305759D01*
X97621301Y-53239599D01*
X97538440Y-53184234D01*
X97538439Y-53184233D01*
X97538435Y-53184232D01*
X97465377Y-53169700D01*
X97465374Y-53169700D01*
X96374626Y-53169700D01*
X96374625Y-53169700D01*
X96347872Y-53175021D01*
X96278281Y-53168792D01*
X96223104Y-53125928D01*
X96199861Y-53060038D01*
X96214324Y-52994951D01*
X96229485Y-52966587D01*
X96242982Y-52946387D01*
X96326924Y-52844103D01*
X96344103Y-52826924D01*
X96446387Y-52742982D01*
X96466587Y-52729485D01*
X96583278Y-52667113D01*
X96605719Y-52657816D01*
X96732349Y-52619403D01*
X96756173Y-52614665D01*
X96885170Y-52601960D01*
X96893939Y-52601097D01*
X96906092Y-52600500D01*
X96939882Y-52600500D01*
X111760118Y-52600500D01*
X111793908Y-52600500D01*
X111806061Y-52601097D01*
G37*
%TD.AperFunction*%
%TD*%
M02*
