%TF.GenerationSoftware,KiCad,Pcbnew,9.0.0*%
%TF.CreationDate,2025-08-30T20:52:42+01:00*%
%TF.ProjectId,030,3033302e-6b69-4636-9164-5f7063625858,rev?*%
%TF.SameCoordinates,Original*%
%TF.FileFunction,Legend,Top*%
%TF.FilePolarity,Positive*%
%FSLAX46Y46*%
G04 Gerber Fmt 4.6, Leading zero omitted, Abs format (unit mm)*
G04 Created by KiCad (PCBNEW 9.0.0) date 2025-08-30 20:52:42*
%MOMM*%
%LPD*%
G01*
G04 APERTURE LIST*
%ADD10C,0.150000*%
%ADD11C,0.120000*%
G04 APERTURE END LIST*
D10*
X97500819Y-58149999D02*
X97500819Y-58054761D01*
X97500819Y-58054761D02*
X97548438Y-57959523D01*
X97548438Y-57959523D02*
X97596057Y-57911904D01*
X97596057Y-57911904D02*
X97691295Y-57864285D01*
X97691295Y-57864285D02*
X97881771Y-57816666D01*
X97881771Y-57816666D02*
X98119866Y-57816666D01*
X98119866Y-57816666D02*
X98310342Y-57864285D01*
X98310342Y-57864285D02*
X98405580Y-57911904D01*
X98405580Y-57911904D02*
X98453200Y-57959523D01*
X98453200Y-57959523D02*
X98500819Y-58054761D01*
X98500819Y-58054761D02*
X98500819Y-58149999D01*
X98500819Y-58149999D02*
X98453200Y-58245237D01*
X98453200Y-58245237D02*
X98405580Y-58292856D01*
X98405580Y-58292856D02*
X98310342Y-58340475D01*
X98310342Y-58340475D02*
X98119866Y-58388094D01*
X98119866Y-58388094D02*
X97881771Y-58388094D01*
X97881771Y-58388094D02*
X97691295Y-58340475D01*
X97691295Y-58340475D02*
X97596057Y-58292856D01*
X97596057Y-58292856D02*
X97548438Y-58245237D01*
X97548438Y-58245237D02*
X97500819Y-58149999D01*
X97500819Y-57483332D02*
X97500819Y-56864285D01*
X97500819Y-56864285D02*
X97881771Y-57197618D01*
X97881771Y-57197618D02*
X97881771Y-57054761D01*
X97881771Y-57054761D02*
X97929390Y-56959523D01*
X97929390Y-56959523D02*
X97977009Y-56911904D01*
X97977009Y-56911904D02*
X98072247Y-56864285D01*
X98072247Y-56864285D02*
X98310342Y-56864285D01*
X98310342Y-56864285D02*
X98405580Y-56911904D01*
X98405580Y-56911904D02*
X98453200Y-56959523D01*
X98453200Y-56959523D02*
X98500819Y-57054761D01*
X98500819Y-57054761D02*
X98500819Y-57340475D01*
X98500819Y-57340475D02*
X98453200Y-57435713D01*
X98453200Y-57435713D02*
X98405580Y-57483332D01*
X97500819Y-56245237D02*
X97500819Y-56149999D01*
X97500819Y-56149999D02*
X97548438Y-56054761D01*
X97548438Y-56054761D02*
X97596057Y-56007142D01*
X97596057Y-56007142D02*
X97691295Y-55959523D01*
X97691295Y-55959523D02*
X97881771Y-55911904D01*
X97881771Y-55911904D02*
X98119866Y-55911904D01*
X98119866Y-55911904D02*
X98310342Y-55959523D01*
X98310342Y-55959523D02*
X98405580Y-56007142D01*
X98405580Y-56007142D02*
X98453200Y-56054761D01*
X98453200Y-56054761D02*
X98500819Y-56149999D01*
X98500819Y-56149999D02*
X98500819Y-56245237D01*
X98500819Y-56245237D02*
X98453200Y-56340475D01*
X98453200Y-56340475D02*
X98405580Y-56388094D01*
X98405580Y-56388094D02*
X98310342Y-56435713D01*
X98310342Y-56435713D02*
X98119866Y-56483332D01*
X98119866Y-56483332D02*
X97881771Y-56483332D01*
X97881771Y-56483332D02*
X97691295Y-56435713D01*
X97691295Y-56435713D02*
X97596057Y-56388094D01*
X97596057Y-56388094D02*
X97548438Y-56340475D01*
X97548438Y-56340475D02*
X97500819Y-56245237D01*
X105517142Y-70198819D02*
X105040952Y-70198819D01*
X105040952Y-70198819D02*
X105040952Y-69198819D01*
X105850476Y-69675009D02*
X106183809Y-69675009D01*
X106326666Y-70198819D02*
X105850476Y-70198819D01*
X105850476Y-70198819D02*
X105850476Y-69198819D01*
X105850476Y-69198819D02*
X106326666Y-69198819D01*
X106755238Y-70198819D02*
X106755238Y-69198819D01*
X106755238Y-69198819D02*
X106993333Y-69198819D01*
X106993333Y-69198819D02*
X107136190Y-69246438D01*
X107136190Y-69246438D02*
X107231428Y-69341676D01*
X107231428Y-69341676D02*
X107279047Y-69436914D01*
X107279047Y-69436914D02*
X107326666Y-69627390D01*
X107326666Y-69627390D02*
X107326666Y-69770247D01*
X107326666Y-69770247D02*
X107279047Y-69960723D01*
X107279047Y-69960723D02*
X107231428Y-70055961D01*
X107231428Y-70055961D02*
X107136190Y-70151200D01*
X107136190Y-70151200D02*
X106993333Y-70198819D01*
X106993333Y-70198819D02*
X106755238Y-70198819D01*
D11*
%TO.C,R1*%
X107824276Y-53198500D02*
X108333724Y-53198500D01*
X107824276Y-54243500D02*
X108333724Y-54243500D01*
%TO.C,J1*%
X96136200Y-53979501D02*
X96136200Y-60296501D01*
X97651681Y-61113101D02*
X99997000Y-61113101D01*
X99997000Y-53162901D02*
X97651681Y-53162901D01*
X99997000Y-53880656D02*
X99997000Y-53162901D01*
X99997000Y-61113101D02*
X99997000Y-60395346D01*
%TO.C,R2*%
X104268276Y-53198500D02*
X104777724Y-53198500D01*
X104268276Y-54243500D02*
X104777724Y-54243500D01*
%TO.C,D1*%
X102462000Y-71440000D02*
X102462000Y-73040000D01*
X102462000Y-73040000D02*
X102262000Y-72840000D01*
X109862000Y-71440000D02*
X109862000Y-73040000D01*
X109862000Y-73040000D02*
X110062000Y-72840000D01*
%TD*%
M02*
